<svg clip-rule="evenodd" fill-rule="evenodd" height="309.276856" stroke-linejoin="round" stroke-miterlimit="1.41421" viewBox="0 0 23.424999 21.822001" width="323.334895" xmlns="http://www.w3.org/2000/svg"><path d="m22.412 21.518.159-.009c.007.044.025.081.052.11.028.029.07.052.128.07s.123.026.196.026c.064 0 .121-.006.17-.02.049-.013.086-.032.11-.055s.036-.049.036-.077-.012-.053-.035-.073c-.023-.021-.061-.039-.114-.053-.035-.01-.11-.024-.227-.044s-.199-.039-.246-.056c-.061-.022-.106-.05-.136-.084-.03-.033-.045-.07-.045-.111 0-.045.018-.087.055-.127.036-.039.09-.069.16-.09.07-.02.148-.03.233-.03.095 0 .178.011.25.032s.128.053.167.094c.038.042.059.089.062.142l-.161.008c-.009-.056-.039-.099-.089-.128s-.124-.043-.221-.043c-.103 0-.177.013-.224.039-.046.026-.07.058-.07.095 0 .032.017.059.05.079.033.021.117.043.254.064.137.022.231.041.282.057.074.025.129.055.164.092.036.037.053.079.053.127s-.019.093-.058.135-.095.075-.167.099c-.073.023-.155.035-.245.035-.116 0-.212-.012-.29-.036-.078-.023-.139-.059-.184-.106-.044-.048-.067-.101-.069-.162zm-17.783-.026.169.03c-.036.097-.1.172-.191.223-.092.051-.204.077-.337.077-.137 0-.249-.02-.335-.059-.086-.04-.151-.097-.196-.171-.045-.075-.067-.155-.067-.241 0-.093.025-.174.076-.244.05-.069.122-.122.216-.158.093-.036.196-.054.309-.054.127 0 .234.023.321.068.087.046.147.11.182.193l-.166.028c-.03-.066-.073-.113-.129-.143s-.126-.045-.212-.045c-.098 0-.179.017-.245.05s-.112.077-.139.133c-.026.055-.04.113-.04.172 0 .076.016.143.048.2.031.056.08.099.147.127s.139.042.216.042c.095 0 .175-.019.24-.057s.11-.095.133-.171zm2.751-.037v-.105l.54-.001v.333c-.083.046-.168.081-.256.105-.088.023-.179.035-.271.035-.126 0-.239-.019-.342-.057-.102-.037-.179-.092-.231-.163s-.078-.151-.078-.239.026-.169.078-.245c.051-.075.126-.131.223-.168.098-.036.21-.055.336-.055.092 0 .176.011.25.032.075.02.133.05.175.087.043.038.075.087.097.147l-.152.029c-.02-.045-.043-.081-.072-.107-.028-.027-.069-.048-.121-.063-.053-.016-.112-.024-.176-.024-.077 0-.143.009-.199.025-.057.017-.102.038-.137.065-.034.027-.061.057-.08.089-.032.055-.049.116-.049.18 0 .08.02.147.059.201s.096.093.171.12c.075.026.154.039.238.039.073 0 .144-.01.214-.03.069-.019.122-.041.158-.063v-.167zm11.929 0v-.105l.54-.001v.333c-.083.046-.168.081-.257.105-.088.023-.178.035-.271.035-.125 0-.239-.019-.341-.057-.102-.037-.179-.092-.231-.163s-.078-.151-.078-.239.026-.169.078-.245c.051-.075.126-.131.223-.168.097-.036.21-.055.336-.055.092 0 .176.011.25.032.075.02.133.05.175.087.042.038.074.087.097.147l-.152.029c-.02-.045-.043-.081-.072-.107-.028-.027-.069-.048-.121-.063-.053-.016-.112-.024-.176-.024-.077 0-.143.009-.2.025-.056.017-.101.038-.136.065-.034.027-.061.057-.08.089-.032.055-.049.116-.049.18 0 .08.02.147.059.201s.096.093.171.12c.075.026.154.039.238.039.073 0 .144-.01.213-.03.07-.019.123-.041.158-.063v-.167zm-8.932-.439h-.752v.275h.705v.105h-.705v.305h.782v.105h-.95v-.896h.92zm11.919 0h-.421v.79h-.169v-.79h-.419v-.106h1.009zm-13.957.79h-.168v-.896h.565c.113 0 .199.008.258.024.059.017.106.045.142.086.035.04.053.086.053.135 0 .064-.029.117-.088.161-.058.043-.149.071-.271.083.045.015.079.029.102.045.049.031.096.071.14.118l.221.244h-.212l-.168-.186c-.049-.054-.09-.095-.122-.124-.032-.028-.06-.048-.085-.059-.026-.012-.051-.02-.077-.024-.019-.003-.05-.004-.094-.004h-.196zm3.353 0h-.192l-.149-.271h-.532l-.14.271h-.179l.489-.896h.182zm-6.513 0h-.169v-.896h.169v.368h.662v-.368h.169v.896h-.169v-.422h-.662zm15.092 0h-.169v-.896h.169v.368h.662v-.368h.169v.896h-.169v-.422h-.662zm-7.662-.79h-.422v.79h-.168v-.79h-.42v-.106h1.01zm1.097 0h-.753v.275h.705v.105h-.705v.305h.782v.105h-.95v-.896h.921zm.433.79h-.168v-.896h.564c.114 0 .2.008.259.024.059.017.106.045.142.086.035.04.053.086.053.135 0 .064-.029.117-.088.161-.058.043-.149.071-.271.083.045.015.079.029.102.045.049.031.096.071.14.118l.221.244h-.212l-.168-.186c-.049-.054-.09-.095-.122-.124-.032-.028-.06-.048-.086-.059-.025-.012-.05-.02-.076-.024-.02-.003-.051-.004-.094-.004h-.196zm-10.553 0h-.193l-.148-.271h-.533l-.139.271h-.179l.489-.896h.181zm12.335 0h-.169v-.896h.169v.368h.662v-.368h.169v.896h-.169v-.422h-.662zm-15.688 0h-.168v-.896h.564c.114 0 .2.008.259.024.059.017.106.045.142.086.035.04.053.086.053.135 0 .064-.029.117-.088.161-.059.043-.149.071-.271.083.045.015.078.029.102.045.049.031.095.071.139.118l.222.244h-.212l-.168-.186c-.05-.054-.09-.095-.122-.124-.032-.028-.06-.048-.086-.059-.025-.012-.05-.02-.077-.024-.019-.003-.05-.004-.093-.004h-.196zm17.724-.79h-.753v.275h.705v.105h-.705v.305h.782v.105h-.95v-.896h.921zm.459.79h-.168v-.896h.168zm-16.145-.79h-.752v.275h.704v.105h-.704v.305h.782v.105h-.951v-.896h.921zm.49.422h.432l-.133-.248c-.04-.075-.071-.137-.09-.186-.017.058-.039.115-.069.172zm8.106 0h.432l-.133-.248c-.04-.075-.07-.137-.09-.186-.016.058-.039.115-.069.172zm-2.125-.429h-.403v.297h.363c.076 0 .137-.006.18-.017.044-.011.077-.029.099-.054.023-.024.034-.051.034-.08 0-.043-.021-.078-.065-.105s-.113-.041-.208-.041zm5.8 0h-.403v.297h.363c.076 0 .137-.006.18-.017.044-.011.077-.029.099-.054.023-.024.034-.051.034-.08 0-.043-.022-.078-.065-.105-.044-.027-.113-.041-.208-.041zm-13.906 0h-.403v.297h.362c.077 0 .138-.006.181-.017.044-.011.076-.029.099-.054.023-.024.034-.051.034-.08 0-.043-.022-.078-.066-.105-.043-.027-.112-.041-.207-.041zm21.045-.953v-.105h.539v.332c-.082.047-.168.082-.256.105s-.178.035-.271.035c-.125 0-.239-.019-.341-.057-.102-.037-.179-.092-.231-.163-.053-.071-.079-.151-.079-.239s.026-.168.078-.244.126-.132.224-.169c.097-.036.209-.055.336-.055.092 0 .175.011.25.032.074.021.133.05.175.088.042.037.074.086.097.146l-.153.03c-.019-.046-.043-.082-.071-.108s-.069-.047-.122-.063c-.052-.015-.111-.023-.175-.023-.077 0-.144.008-.2.024-.056.017-.101.039-.136.066-.034.026-.061.056-.08.088-.033.055-.049.116-.049.181 0 .08.02.146.059.2s.096.094.171.12c.074.026.153.039.237.039.074 0 .145-.01.214-.03.07-.019.122-.04.158-.063v-.167zm-21.023 0v-.105h.539v.332c-.082.047-.168.082-.256.105s-.178.035-.271.035c-.125 0-.239-.019-.341-.057-.102-.037-.179-.092-.232-.163-.052-.071-.078-.151-.078-.239s.026-.168.078-.244.127-.132.224-.169c.097-.036.209-.055.336-.055.092 0 .175.011.25.032.074.021.133.05.175.088.042.037.074.086.096.146l-.152.03c-.019-.046-.043-.082-.071-.108s-.069-.047-.122-.063c-.052-.015-.111-.023-.175-.023-.077 0-.144.008-.2.024-.056.017-.101.039-.136.066-.034.026-.061.056-.08.088-.033.055-.049.116-.049.181 0 .08.02.146.059.2s.096.094.171.12c.074.026.153.039.237.039.074 0 .145-.01.214-.03.07-.019.122-.04.158-.063v-.167zm13.851-.085c0-.148.057-.265.171-.349.113-.084.26-.126.439-.126.118 0 .224.019.318.059.095.039.167.095.216.165.05.071.074.151.074.241 0 .091-.026.172-.078.244-.052.071-.126.126-.221.163-.096.037-.199.055-.31.055-.12 0-.227-.02-.321-.061-.095-.041-.166-.097-.215-.167-.048-.07-.073-.145-.073-.224zm-7.497 0c0-.148.057-.265.171-.349.113-.084.26-.126.439-.126.118 0 .224.019.318.059.095.039.167.095.216.165.05.071.074.151.074.241 0 .091-.026.172-.078.244-.052.071-.126.126-.221.163-.096.037-.199.055-.31.055-.12 0-.227-.02-.321-.061-.095-.041-.166-.097-.215-.167-.048-.07-.073-.145-.073-.224zm-1.273.437h-.163v-.897h.254l.301.635c.028.059.049.103.061.133.015-.033.037-.081.068-.144l.305-.624h.227v.897h-.163v-.751l-.37.751h-.152l-.368-.763zm7.697 0h-.162v-.897h.173l.669.704v-.704h.161v.897h-.172l-.669-.705zm9.957-.791h-.752v.275h.704v.105h-.704v.305h.782v.106h-.951v-.897h.921zm-11.142.791h-.169v-.897h.169v.445l.632-.445h.229l-.535.364.558.533h-.222l-.454-.454-.208.143zm-1.594-.791h-.752v.275h.704v.105h-.704v.305h.781v.106h-.95v-.897h.921zm-2.038.791h-.169v-.897h.565c.113 0 .2.009.259.025s.106.044.141.085c.036.041.053.086.053.135 0 .064-.029.117-.087.161-.059.043-.149.071-.272.083.045.015.079.03.102.045.049.032.096.071.14.119l.222.244h-.212l-.169-.187c-.049-.053-.09-.095-.122-.123-.031-.029-.06-.049-.085-.06-.025-.012-.051-.019-.077-.024-.019-.003-.05-.004-.094-.004h-.195zm7.72 0h-.172l-.338-.897h.173l.194.588c.02.061.038.123.053.183.033-.095.052-.15.058-.165l.242-.606h.204l.182.454c.046.112.079.219.099.317.016-.056.037-.121.063-.194l.2-.577h.17l-.35.897h-.162l-.268-.683c-.023-.057-.036-.092-.041-.105-.013.041-.025.076-.037.105zm1.446-.106h.628v.106h-.796v-.897h.168zm-14.498.106h-.162v-.897h.173l.669.704v-.704h.162v.897h-.173l-.669-.705zm16.251-.791h-.753v.275h.705v.105h-.705v.305h.782v.106h-.95v-.897h.921zm-16.708.791h-.169v-.897h.169zm17.43 0h-.46v-.897h.439c.099 0 .174.005.227.014.072.011.135.033.186.063.067.041.118.091.151.154.034.062.05.133.05.213 0 .068-.011.128-.034.181-.023.052-.051.096-.087.13-.035.035-.074.062-.116.082-.042.019-.092.035-.152.045-.059.01-.127.015-.204.015zm-17.762 0h-.192l-.149-.272h-.532l-.14.272h-.179l.489-.897h.182zm4.688-.435c0 .108.041.193.124.255s.186.093.311.093c.126 0 .231-.031.313-.094.082-.062.123-.151.123-.267 0-.073-.018-.136-.053-.191-.035-.054-.086-.097-.154-.126-.067-.03-.143-.045-.227-.045-.119 0-.222.028-.308.086s-.129.154-.129.289zm7.497 0c0 .108.041.193.124.255.082.062.186.093.31.093.127 0 .232-.031.314-.094.082-.062.123-.151.123-.267 0-.073-.018-.136-.053-.191-.035-.054-.086-.097-.154-.126-.067-.03-.143-.045-.227-.045-.119 0-.222.028-.308.086s-.129.154-.129.289zm5.553-.356h-.268v.685h.272c.084 0 .151-.006.198-.016.048-.011.086-.027.114-.047.04-.028.072-.066.094-.113.022-.048.033-.105.033-.173 0-.094-.022-.166-.065-.216-.044-.051-.097-.084-.16-.101-.045-.013-.118-.019-.218-.019zm-18.563.423h.432l-.133-.248c-.04-.076-.07-.138-.09-.186-.016.057-.039.114-.069.171zm7.349-.429h-.403v.296h.362c.077 0 .137-.006.181-.017.043-.011.076-.029.099-.054.022-.024.033-.051.033-.08 0-.042-.021-.077-.065-.105-.043-.027-.113-.04-.207-.04zm14.328-1.225c-.424-.502-.617-1.885-1.499-1.56-.305-.502-.467-1.481-1.386-1.298l-.581-1.152c-.431.08-1.855-.448-2.296-.546-1.504-.332-2.993-.715-4.436-.013-.149.072.075-.267.195-.364 1.512-1.211 3.686-.502 6.07.159l-.663-1.142c-1.355.196-4.313-1.988-7.084.576-2.772-2.564-5.73-.38-7.084-.576l-.664 1.142c2.385-.661 4.558-1.37 6.071-.159.12.097.344.436.195.364-1.443-.702-2.933-.319-4.436.013-.441.098-1.866.626-2.297.546l-.581 1.152c-.918-.183-1.081.796-1.385 1.298-.882-.325-1.075 1.058-1.489 1.56l10.04-.013v.456h3.26v-.456zm-10.165-3.189c1.308-1.176 4.331-.173 5.927.155-.859.59-3.917-.247-5.927-.155zm-3.03 0c-1.308-1.176-4.331-.173-5.927.155.859.59 3.917-.247 5.927-.155zm2.044-3.016h-1.038c-.922-2.29-3.643-1.058-5.975-.556l.518-1.264c1.64-.221 3.795-1.266 5.715.384.186.16.371.129.522 0 1.923-1.647 4.074-.605 5.715-.384l.518 1.264c-2.333-.502-5.053-1.734-5.975.556zm-5.198-3.059.375-.772c.798-.545 2.267-.974 4.205.086l.651.12c1.024-.537 2.452-.896 3.745-.566.159.041.316.092.469.154l.625 1.133c.068.123-.292-.024-.428-.069-1.081-.356-2.285-.373-2.982-.155l.214.378c-.666-.269-1.672.698-2.374.326l-.125.086c-.239.006-.429-.034-.572-.12-.314-.014-.406-.035-.428-.137l.321-.241v-.188c-1.125-.45-2.381-.364-3.696-.035zm6.231-2.11v-.207c-.485-.249-.876-.53-1.206-.828-.516-.295-1.048-.505-1.668-.596-.33-.048-1.486.025-.684-.294 1.288-.512 2.819-.323 3.844.723.171.175.531.087.857-.068.985-.47 2.422-.738 3.714.102-.441.75-2.417-.337-3.732.292-.19.366 1.262.115 1.678.378-.26.134-.983.408-1.446.669-.925-.062-1.568.176-2.017.618-.202-.247-.411-.475-.661-.584l.036-.128h.973l.08-.077zm1.964-2.644v-.137c-.542-.088-1.268-.31-1.617-.359-.769-.585-1.681-1.068-2.364-.996-.054-.132.036-.218.268-.258.831-.187 1.465-.075 1.964.241l2.303.411c.255.141.512.129.768-.051l1.142-.944c.404-.33 1.256-.482 2.232-.584l.038.137c-.821.298-1.631.61-2.288 1.116-.184.142-.083.263.232.292v.137c-.672.006-.988.578-1.267.892-.548.003-1.095.278-1.643.739-.233-.149-.617-.078-.678-.223.113-.207.416-.344.91-.413zm2.59-2.719c-.17-.061-.452.367-.441.014h-.876c-.276-.17-.534-.241-.85-.183l-.024-.087c.365-.313.102-.428-.103-.498-.42-.141-1.283.024-1.303-.895.306.138.656.53 1.673.583l.385.156c.175.118.329.266.589.261-.04.11.129.149.49.1.289-.039.575.041.862.186.229-.028.468-.128.655.129-.138.054-.288.163-.342.214-.085-.16-.432-.154-.715.02z" fill="#162e4d"/></svg>